<?xml version="1.0" ?><!-- Created with Inkscape (http://www.inkscape.org/) --><!DOCTYPE svg  PUBLIC '-//W3C//DTD SVG 1.1//EN'  'http://www.w3.org/Graphics/SVG/1.1/DTD/svg11.dtd' [
	<!ENTITY stroke_color "#666666">
	<!ENTITY fill_color "#ffffff">
]><svg xmlns:inkscape="http://www.inkscape.org/namespaces/inkscape" xmlns:sodipodi="http://sodipodi.sourceforge.net/DTD/sodipodi-0.dtd" xmlns="http://www.w3.org/2000/svg" xmlns:svg="http://www.w3.org/2000/svg" xmlns:rdf="http://www.w3.org/1999/02/22-rdf-syntax-ns#" xmlns:cc="http://creativecommons.org/ns#" xmlns:dc="http://purl.org/dc/elements/1.1/" width="55" height="55" id="svg4502" sodipodi:version="0.32" inkscape:version="1.3.2 (091e20e, 2023-11-25, custom)" version="1.0" sodipodi:docname="Icon_template.inkscape.svg" inkscape:output_extension="org.inkscape.output.svg.inkscape" xml:space="preserve"><defs id="defs4504"/><sodipodi:namedview id="base" pagecolor="#ffffff" bordercolor="#666666" borderopacity="1.0" gridtolerance="10000" guidetolerance="10" objecttolerance="10" inkscape:pageopacity="0.0" inkscape:pageshadow="2" inkscape:zoom="8" inkscape:cx="-3" inkscape:cy="-13.625" inkscape:document-units="px" inkscape:current-layer="layer4" gridspacingx="15px" gridspacingy="15px" width="55px" height="55px" inkscape:window-width="1920" inkscape:window-height="1001" inkscape:window-x="-9" inkscape:window-y="-9" inkscape:showpageshadow="2" inkscape:pagecheckerboard="0" inkscape:deskcolor="#d1d1d1" inkscape:window-maximized="1"/><metadata id="metadata4507"><rdf:RDF><cc:Work rdf:about=""><dc:format>image/svg+xml</dc:format><dc:type rdf:resource="http://purl.org/dc/dcmitype/StillImage"/></cc:Work></rdf:RDF></metadata><g inkscape:groupmode="layer" id="layer2" inkscape:label="_swatches" style="display:inline" transform="translate(-55,55)"><g id="_x5F_swatches"><rect x="55" width="55" height="55" id="rect2318" y="0" style="fill:&stroke_color;;fill-opacity:1"/><rect x="84.695" y="16.556999" width="8.783" height="8.7799997" id="rect2320" style="fill:#666666;stroke:&fill_color;;stroke-width:3.5"/><rect x="84.695" y="29.729" width="8.783" height="8.7819996" id="rect2322" style="fill:&fill_color;;stroke:&fill_color;;stroke-width:3.5"/><rect x="97.867996" y="16.556" width="8.7819996" height="8.7810001" id="rect2324" style="fill:#666666"/><rect x="71.521004" y="16.556999" width="8.783" height="8.7799997" id="rect2326" style="fill:#666666;stroke:#666666;stroke-width:3.5"/><rect x="84.695" y="3.3840001" width="8.783" height="8.7799997" id="rect2328" style="fill:none;stroke:&fill_color;;stroke-width:3.5"/><rect x="58.349998" y="29.729" width="8.783" height="8.7819996" id="rect2330" style="fill:&fill_color;"/><rect x="71.521004" y="42.900002" width="8.783" height="8.7810001" id="rect2332" style="fill:none;stroke:#666666;stroke-width:3.5"/><rect x="71.521004" y="29.729" width="8.783" height="8.7819996" id="rect2334" style="fill:&fill_color;;stroke:#666666;stroke-width:3.5"/></g></g><g inkscape:groupmode="layer" id="layer4" inkscape:label="icon" style="display:inline" transform="translate(-55,55)"><rect style="display:inline;opacity:1;fill:none;fill-opacity:1;stroke:none;stroke-width:3.5;stroke-linecap:butt;stroke-linejoin:round;stroke-miterlimit:1.6;stroke-dasharray:none;stroke-dashoffset:0;stroke-opacity:1;paint-order:markers fill stroke" id="rect61" width="55" height="55" x="0" y="-55" inkscape:label="rect61" inkscape:export-filename="..\Desktop\shared folder\activity-numberguessing.svg" inkscape:export-xdpi="96" inkscape:export-ydpi="96"/></g><g inkscape:groupmode="layer" id="layer3" inkscape:label="icon 2" transform="translate(-55,55)"><rect style="display:none;fill:&fill_color;;stroke:none;stroke-width:3.50001;stroke-linejoin:round;stroke-miterlimit:1.6;paint-order:markers fill stroke" id="rect3" width="55" height="55" x="55" y="-55"/><path id="path3" style="display:inline;fill:&stroke_color;;stroke:none;stroke-width:4.08192;stroke-linejoin:round;stroke-miterlimit:1.6;paint-order:markers fill stroke" d="m 68.207031,-50 c -8.483966,9.368566 -6.914062,16.917969 -6.914062,16.917969 A 6.9144279,7.0817401 0 0 0 68.207031,-26 a 6.9144279,7.0817401 0 0 0 6.916016,-7.082031 c 0,0 1.29485,-7.819147 -6.916016,-16.917969 z M 94.267578,-50 75.087891,-24 81.6875,-24.002 74.742188,-5 94.162109,-29.007812 h -7.351562 z m 7.134762,20.992188 c -0.10027,-0.0095 -0.21459,0.04233 -0.37304,0.15039 -0.77247,0.508574 -2.030434,1.564076 -2.931644,2.466797 -1.079468,1.068005 -1.782797,1.906335 -2.654297,3.152344 -0.970531,1.398578 -1.583807,2.542712 -2.158203,4.017578 -0.663528,1.703723 -0.990673,3.216853 -1.099609,5.136719 -0.13865,2.314013 0.306285,4.1185416 1.455078,5.8222652 0.841789,1.2460061 2.199327,2.4043026 3.595703,3.0527344 0.564495,0.2542868 0.77291,0.2659677 0.951172,0.037109 0.20797,-0.2670013 0.178236,-0.4707085 -0.138672,-1.1191406 -1.178504,-2.3648694 -1.78318,-5.110659 -1.644531,-7.513672 0.118839,-2.085154 0.78202,-4.016941 1.990234,-5.746093 0.188164,-0.279716 0.405424,-0.560468 0.464844,-0.611328 0.11884,-0.114429 0.119554,-0.114429 0.08984,0 -0.05941,0.228859 -0.119141,1.412001 -0.119141,2.136718 0,2.008869 0.367167,3.712133 1.070313,4.869141 0.297113,0.495861 0.544973,0.63599 0.822273,0.470703 0.14855,-0.07628 0.21781,-0.28045 0.28711,-0.814453 0.099,-0.724719 0.25727,-1.587891 0.29687,-1.587891 0.0199,0 0.0486,0.07601 0.0586,0.177735 0.01,0.10172 0.12907,0.55986 0.25782,1.017578 0.77248,2.746302 0.8422,3.076524 0.8125,4.1445307 -0.0197,0.5212885 -0.0593,0.7884892 -0.14844,1.1699219 -0.16835,0.6611449 -0.4953,1.5380335 -0.83203,2.2246094 -0.21778,0.4577167 -0.26758,0.6110234 -0.26758,0.8144531 0,0.2161441 0.02,0.278149 0.12891,0.3925781 0.18818,0.2034294 0.41525,0.1781146 0.89062,-0.076172 1.92126,-1.0680059 3.43716,-3.546516 3.88281,-6.3945322 0.11884,-0.737434 0.11884,-2.594598 0,-3.332031 -0.12876,-0.801004 -0.37646,-1.740931 -0.69336,-2.580078 -0.39614,-1.05529 -0.53466,-1.373601 -1.69336,-3.611328 -1.40627,-2.746298 -1.82228,-3.839777 -1.96093,-5.1875 -0.0595,-0.546715 -0.0488,-0.660052 0.0898,-2.033203 0.0198,-0.190717 -3e-5,-0.242879 -0.13867,-0.433594 -0.10399,-0.1335 -0.19074,-0.203352 -0.29102,-0.21289 z"/><path style="display:inline;fill:none;stroke:none;stroke-width:3.50225;stroke-linejoin:round;stroke-miterlimit:1.6;paint-order:markers fill stroke" d="M 88.069347,-5 V -20.948038 L 99.486114,-21.036427 99.397612,-5 Z" id="path8" inkscape:label="path8"/></g></svg>